<?xml version="1.0" standalone="no"?>
<!DOCTYPE svg PUBLIC "-//W3C//DTD SVG 20010904//EN"
 "http://www.w3.org/TR/2001/REC-SVG-20010904/DTD/svg10.dtd">
<svg version="1.0" xmlns="http://www.w3.org/2000/svg"
 width="600.000000pt" height="600.000000pt" viewBox="0 0 600.000000 600.000000"
 preserveAspectRatio="xMidYMid meet">
<metadata>
Created by potrace 1.14, written by Peter Selinger 2001-2017
</metadata>
<g transform="translate(0.000000,600.000000) scale(0.100000,-0.100000)"
fill="#000000" stroke="none">
<path d="M1747 5614 c-4 -4 -7 -52 -7 -106 l0 -98 -310 0 -310 0 0 -75 0 -75
310 0 310 0 0 -75 0 -75 -287 -2 -288 -3 -3 -72 -3 -73 291 0 290 0 0 -80 0
-80 -325 0 -325 0 0 -75 0 -75 740 0 740 0 0 75 0 75 -325 0 -325 0 0 80 0 80
290 0 291 0 -3 73 -3 72 -287 3 -288 2 0 75 0 75 310 0 310 0 0 75 0 75 -310
0 -309 0 -3 103 -3 102 -80 3 c-45 1 -84 0 -88 -4z"/>
<path d="M3504 5457 c-3 -8 -4 -49 -2 -93 l3 -79 443 -3 442 -2 0 -234 c0
-128 -3 -254 -6 -280 l-7 -46 -503 0 -504 0 0 -90 0 -90 490 0 c443 0 490 -2
490 -16 0 -25 -57 -188 -86 -246 -50 -101 -135 -218 -227 -313 l-93 -95 -752
0 -752 0 0 320 0 320 -610 0 -610 0 0 -320 0 -320 -105 0 -105 0 0 765 0 765
-310 0 -310 0 0 -238 c0 -131 -3 -476 -7 -765 l-6 -527 -189 0 -188 0 0 -415
0 -415 3000 0 3000 0 0 415 0 415 -469 0 -469 0 -79 78 c-97 95 -147 157 -214
269 -48 80 -139 282 -139 311 0 9 108 12 506 12 l506 0 -6 23 c-3 12 -6 52 -6
90 l0 67 -521 0 -522 0 6 83 c4 45 7 171 7 279 l0 198 458 2 457 3 0 90 0 90
-1003 3 c-832 2 -1003 0 -1008 -11z m-2664 -522 l0 -306 -142 3 -143 3 -3 303
-2 302 145 0 145 0 0 -305z m0 -765 l0 -300 -140 0 -140 0 0 300 0 300 140 0
140 0 0 -300z m1420 110 l0 -80 -430 0 -430 0 0 80 0 80 430 0 430 0 0 -80z
m2325 -105 c28 -60 81 -154 118 -207 l66 -98 -260 0 -260 0 40 53 c69 91 145
229 181 330 l35 96 14 -32 c8 -17 38 -81 66 -142z m-2325 -205 l0 -80 -430 0
-430 0 0 80 0 80 430 0 430 0 0 -80z"/>
<path d="M4398 2938 l-77 -49 64 -84 c35 -46 69 -93 75 -104 l11 -21 -501 0
-500 0 0 -215 0 -215 90 0 90 0 0 140 0 140 865 0 865 0 0 -140 0 -140 85 0
85 0 0 215 0 215 -487 2 -488 3 47 30 c27 17 48 33 48 37 0 9 -152 198 -176
219 -18 15 -24 13 -96 -33z"/>
<path d="M500 2630 l0 -330 -120 0 -120 0 0 -85 0 -85 120 0 120 0 0 -227 c0
-126 -3 -400 -7 -610 l-6 -383 -244 0 -243 0 0 -455 0 -455 3000 0 3000 0 0
455 0 455 -365 0 -365 0 0 255 0 255 -760 0 -760 0 0 -255 0 -255 -775 0 -775
0 0 155 0 155 190 0 190 0 0 80 0 80 -190 0 -190 0 0 65 0 65 -90 0 -90 0 0
-65 0 -65 -595 0 -595 0 0 -80 0 -80 191 0 191 0 -55 -61 -55 -62 122 -91 121
-91 -329 -3 c-181 -1 -330 -1 -332 0 -1 2 -6 277 -10 611 l-7 607 116 0 117 0
0 85 0 85 -115 0 -115 0 0 330 0 330 -85 0 -85 0 0 -330z m4590 -1535 l0 -165
-580 0 -580 0 0 165 0 165 580 0 580 0 0 -165z m-3070 -7 c0 -73 -3 -143 -6
-155 l-6 -23 -271 0 -271 0 32 33 c18 18 32 38 32 44 0 6 -70 61 -156 122
l-157 111 402 0 401 0 0 -132z"/>
<path d="M1607 2954 c-4 -4 -7 -65 -7 -136 l0 -128 -352 -2 -353 -3 0 -75 0
-75 353 -3 352 -2 0 -70 0 -70 -295 0 -295 0 0 -460 0 -460 85 0 85 0 0 85 0
85 210 0 209 0 3 -72 3 -73 85 0 85 0 3 73 3 72 214 0 215 0 0 -60 0 -60 85 0
85 0 -2 433 -3 432 -297 3 -298 2 0 70 0 70 368 2 367 3 0 75 0 75 -137 3
-137 3 35 64 36 65 -123 59 c-175 84 -170 83 -208 21 -18 -29 -31 -56 -29 -60
2 -5 57 -36 123 -69 66 -33 127 -64 135 -70 11 -8 -50 -11 -207 -11 l-222 0
-3 133 -3 132 -80 3 c-45 1 -84 0 -88 -4z m-7 -789 l0 -75 -210 0 -210 0 0 75
0 75 210 0 210 0 0 -75z m610 0 l0 -75 -215 0 -215 0 0 75 0 75 215 0 215 0 0
-75z m-610 -300 l0 -75 -210 0 -210 0 0 75 0 75 210 0 210 0 0 -75z m610 0 l0
-75 -215 0 -215 0 0 75 0 75 215 0 215 0 0 -75z"/>
<path d="M4065 2462 c-66 -95 -309 -330 -445 -431 -69 -51 -129 -97 -135 -102
-9 -9 100 -129 117 -129 11 0 195 146 279 221 l75 68 95 -93 c52 -51 132 -118
178 -149 l83 -55 -68 -21 c-217 -64 -474 -116 -749 -151 -93 -12 -171 -22
-172 -23 -1 -1 18 -34 43 -72 24 -39 44 -76 44 -82 0 -19 36 -16 241 17 302
50 618 130 809 205 l64 25 76 -29 c209 -80 569 -156 835 -176 44 -3 89 -8 101
-10 17 -4 30 12 77 90 31 52 57 97 57 100 0 3 -46 5 -102 5 -122 0 -302 14
-448 35 -104 16 -313 59 -354 75 -20 7 -19 9 13 26 123 69 285 187 373 273
l98 96 0 72 0 73 -535 2 -535 3 49 60 c27 33 48 62 45 64 -6 6 -156 71 -163
71 -3 0 -24 -26 -46 -58z m925 -296 c0 -10 -168 -135 -235 -176 -38 -24 -107
-61 -153 -82 l-83 -39 -77 41 c-42 23 -104 61 -137 85 -72 51 -185 153 -185
166 0 5 178 9 435 9 239 0 435 -2 435 -4z"/>
</g>
</svg>
